PathFileType	4	(X/Y/Z)	 s06c0202.trc
DataRate	CameraRate	NumFrames	NumMarkers	Units	OrigDataRate	OrigDataStartFrame	OrigNumFrames
200	200	7	48	mm	200	251	2000
Frame#	Time	racr			lacr			c7			jug			rlel			rdr			llel			ldr			s2			lic			ric			lasi			rasi			rpsi			lpsi			rgt			lgt			rth1			rth2			rth3			rth4			rlfc			rmfc			rsh1			rsh2			rsh3			rsh4			rlmal			rcal			rtoe			rmt5			lth1			lth2			lth4			lth3			llfc			lmfc			llmal			lcal			lmt5			lsh1			lsh2			lsh3			lsh4			ltoe			SBIKE			LBIKE			RBIKE			
		X1	Y1	Z1	X2	Y2	Z2	X3	Y3	Z3	X4	Y4	Z4	X5	Y5	Z5	X6	Y6	Z6	X7	Y7	Z7	X8	Y8	Z8	X9	Y9	Z9	X10	Y10	Z10	X11	Y11	Z11	X12	Y12	Z12	X13	Y13	Z13	X14	Y14	Z14	X15	Y15	Z15	X16	Y16	Z16	X17	Y17	Z17	X18	Y18	Z18	X19	Y19	Z19	X20	Y20	Z20	X21	Y21	Z21	X22	Y22	Z22	X23	Y23	Z23	X24	Y24	Z24	X25	Y25	Z25	X26	Y26	Z26	X27	Y27	Z27	X28	Y28	Z28	X29	Y29	Z29	X30	Y30	Z30	X31	Y31	Z31	X32	Y32	Z32	X33	Y33	Z33	X34	Y34	Z34	X35	Y35	Z35	X36	Y36	Z36	X37	Y37	Z37	X38	Y38	Z38	X39	Y39	Z39	X40	Y40	Z40	X41	Y41	Z41	X42	Y42	Z42	X43	Y43	Z43	X44	Y44	Z44	X45	Y45	Z45	X46	Y46	Z46	X47	Y47	Z47	X48	Y48	Z48	
251	1.2550	452.220098	1311.588158	-48.908310	471.033518	1316.395144	-388.195916	450.621748	1424.366947	-216.587846	476.278137	1268.175716	-212.873616	475.476953	1049.888657	41.205526	668.117920	924.021467	-39.766497	465.983315	1047.055337	-464.914812	667.205375	927.278897	-399.695043	-36.916770	1145.973205	-220.138967	150.050425	1092.177818	-383.003084	116.062916	1107.076502	-42.755579	152.668675	1026.477937	-350.271109	133.988468	1048.563045	-72.829811	-1.688895	1178.683780	-187.308784	1.132225	1177.499455	-248.682073	75.040691	1059.708111	-10.669742	101.346026	1030.148184	-411.190628	176.476058	995.641166	-9.406122	264.608089	975.563789	-13.782866	327.405250	916.618122	-15.970334	278.161261	1005.643187	-33.276632	397.741102	836.110520	-38.310270	398.357116	808.970610	-148.379409	362.159721	718.492217	-13.365029	356.983634	632.976893	-33.579058	312.759543	558.265916	-37.648664	379.982833	630.271829	-65.371623	283.415490	479.610654	-43.506912	218.309519	464.158929	-94.458360	482.779243	386.024456	-99.462438	385.158404	386.015122	-27.439424	143.071543	919.846102	-417.604194	211.761404	866.632708	-411.431421	240.146547	888.093860	-399.196773	244.797442	783.655391	-406.018752	272.124412	674.663729	-379.954653	271.574383	656.127251	-262.914469	31.208440	394.672493	-377.778038	-42.104889	412.896310	-332.984873	86.054249	261.501021	-399.628370	208.240004	590.508806	-403.811281	170.294934	513.953718	-386.303571	97.791209	462.308485	-386.714647	190.207474	501.371279	-354.996583	157.192924	214.922703	-340.679342	-203.454494	868.194808	-206.932351	-49.370050	83.888639	-414.483168	-49.206699	80.020932	-16.966075	
252	1.2600	452.311387	1311.614691	-48.783633	471.063465	1316.400504	-388.140237	450.637182	1424.367321	-216.555719	476.407169	1268.173422	-212.815338	475.395229	1049.834872	41.216610	668.067269	924.053694	-39.782155	465.943020	1047.020645	-464.792724	667.165675	927.324694	-399.753204	-36.911483	1145.962062	-220.167350	150.058892	1092.146821	-382.925271	116.010007	1107.124900	-42.840711	152.650574	1026.442346	-350.208843	133.867676	1048.566916	-72.868624	-1.685752	1178.662923	-187.323854	1.141407	1177.478239	-248.711417	75.004917	1059.805579	-10.645363	101.276304	1030.066557	-411.148977	176.482469	995.810507	-9.395456	264.719626	975.923092	-13.802401	327.532966	917.013188	-15.995440	278.571099	1006.106559	-32.796882	397.867964	836.600583	-38.341047	398.393455	809.499116	-148.345252	362.162641	718.993532	-13.406799	357.044709	633.557616	-32.862943	312.689729	558.811588	-37.694540	379.992236	630.726181	-65.395553	283.346148	480.158099	-43.510333	218.203530	464.696654	-94.517820	482.675259	386.432078	-99.476482	385.057541	386.495103	-27.448233	142.945471	919.707185	-417.619769	211.614094	866.483998	-411.456689	240.040387	887.921237	-399.202103	244.611387	783.500362	-406.016882	271.897545	674.495903	-379.943278	271.452130	655.935769	-262.923969	31.277085	394.182279	-377.805657	-42.029394	412.370579	-332.957021	86.218542	261.118230	-399.616794	208.126822	590.264221	-403.832147	170.247323	513.649125	-386.318126	97.789297	461.931239	-386.728238	190.198786	501.093263	-355.063398	157.358151	214.571066	-340.643337	-203.454094	868.187669	-206.928736	-49.362776	83.891292	-414.491698	-49.225796	80.044466	-16.948023	
253	1.2650	452.461885	1311.644812	-48.642884	471.120304	1316.400028	-388.076529	450.648404	1424.349544	-216.467658	476.540664	1268.162884	-212.732858	475.313644	1049.726890	41.219745	668.018593	924.068955	-39.788250	465.909607	1047.068710	-464.703301	667.132604	927.393498	-399.761618	-36.925518	1145.942913	-220.196779	150.050519	1092.117169	-382.843934	115.941810	1107.196432	-42.992907	152.621213	1026.405468	-350.110089	133.712089	1048.587906	-72.974022	-1.674246	1178.659957	-187.341951	1.146391	1177.486113	-248.736653	75.000409	1059.935818	-10.647260	101.208197	1029.983416	-411.165054	176.486638	996.019197	-9.369830	264.779468	976.271760	-13.787820	327.652935	917.375115	-15.985126	278.552039	1006.518008	-32.809089	398.019035	837.103629	-38.398392	398.524387	809.857725	-148.374701	362.179509	719.497004	-13.446840	357.078541	634.049815	-32.855801	312.628967	559.319049	-37.729165	380.007083	631.195224	-65.430909	283.271384	480.720686	-43.578779	218.122656	465.244501	-94.568197	482.548777	386.833543	-99.407969	384.923977	387.005841	-27.478563	142.810836	919.605279	-417.635374	211.452644	866.311483	-411.450917	239.904556	887.739742	-399.215167	244.401285	783.313718	-406.006269	271.667866	674.323409	-379.945091	271.290494	655.751667	-262.924736	31.340810	393.737926	-377.777989	-41.990593	411.778643	-332.980461	86.370939	260.629133	-399.626113	207.987665	590.030653	-403.817506	170.180336	513.345018	-386.294042	97.793964	461.520000	-386.731945	190.174364	500.849515	-355.045274	157.522363	214.202573	-340.617519	-203.466788	868.186418	-206.925786	-49.354093	83.877718	-414.490374	-49.201901	80.020561	-16.974120	
254	1.2700	452.637079	1311.607275	-48.478702	471.192177	1316.369392	-388.022203	450.662353	1424.320890	-216.415554	476.705128	1268.105900	-212.651800	475.210104	1049.567638	41.288881	667.963333	924.080707	-39.805708	465.859407	1047.138269	-464.679913	667.082649	927.459821	-399.781532	-36.915960	1145.933451	-220.240953	149.998976	1092.103892	-382.767022	115.911600	1107.335772	-43.150138	152.585273	1026.390533	-350.015070	133.574344	1048.652071	-73.047632	-1.664347	1178.628884	-187.361640	1.118626	1177.476455	-248.797227	74.942743	1060.133113	-10.619279	101.121036	1029.915354	-411.178804	176.622139	996.374480	-9.286361	264.840649	976.648198	-13.752273	327.772903	917.782621	-15.994223	278.566493	1006.887846	-32.794250	398.172660	837.562155	-38.500471	398.660742	810.509778	-148.625747	362.188711	720.043755	-13.483453	357.064103	634.542692	-32.911699	312.550933	559.875866	-37.769428	380.019638	631.653868	-65.417762	283.174359	481.331585	-43.627215	218.013500	465.946698	-94.563598	482.426783	387.229023	-99.427844	384.750182	387.504181	-27.467530	142.651988	919.489389	-417.662816	211.269808	866.132299	-411.434781	239.729263	887.553445	-399.180245	244.168972	783.126423	-405.992855	271.427651	674.110811	-379.919110	271.071607	655.578480	-262.911614	31.363707	393.267653	-377.754076	-41.999566	411.227566	-332.921604	86.479931	260.113553	-399.658686	207.825013	589.781064	-403.817842	170.086695	512.982463	-386.273907	97.754686	461.075477	-386.776903	190.107651	500.594632	-355.030512	157.718479	213.779380	-340.664229	-203.465320	868.168997	-206.933138	-49.367914	83.877666	-414.492140	-49.218832	80.039734	-16.957806	
255	1.2750	452.779543	1311.446882	-48.320975	471.288125	1316.325845	-387.922260	450.672527	1424.254860	-216.304824	476.886066	1268.024217	-212.550454	475.119347	1049.321301	41.434114	667.888491	924.082608	-39.839388	465.850786	1047.129268	-464.655199	667.042706	927.531493	-399.726477	-36.922949	1145.944440	-220.304722	149.927849	1092.089840	-382.671518	115.847190	1107.615667	-43.344344	152.513313	1026.418488	-349.927723	133.543768	1048.919204	-73.196746	-1.677287	1178.613123	-187.405738	1.101553	1177.480359	-248.826384	74.927982	1060.316606	-10.649203	101.003652	1029.840866	-411.197029	176.656515	996.669224	-9.230010	264.916830	977.028662	-13.717065	327.957142	918.440130	-15.938725	278.588150	1007.256126	-32.788356	398.349402	838.054209	-38.535832	398.950452	811.123766	-148.686487	362.223116	720.553016	-13.533583	357.005729	635.199673	-32.888079	312.472987	560.544086	-37.812098	380.014561	632.231976	-65.406033	283.094523	481.937045	-43.629494	217.924672	466.549679	-94.668753	482.256799	387.741866	-99.426397	384.587729	388.050643	-27.450825	142.476343	919.349354	-417.687747	211.070930	865.959721	-411.452956	239.534176	887.358764	-399.188481	243.883830	782.897419	-405.965172	271.179928	673.874916	-379.905364	270.845058	655.313999	-262.850312	31.350508	392.759963	-377.719183	-42.014062	410.666735	-332.903684	86.616449	259.674907	-399.630118	207.630448	589.473929	-403.783699	169.968731	512.662133	-386.256756	97.692768	460.697222	-386.706755	189.961747	500.297952	-354.979133	157.921392	213.347361	-340.685210	-203.467271	868.179913	-206.973030	-49.371382	83.871181	-414.491278	-49.222388	80.044362	-16.946187	
256	1.2800	453.009943	1311.336273	-48.157192	471.440185	1316.240660	-387.805772	450.702921	1424.162436	-216.192552	477.123821	1267.900139	-212.448656	474.961927	1049.045899	41.660755	667.789959	924.085404	-39.912690	465.830008	1047.015622	-464.634421	667.012352	927.589908	-399.687092	-36.910671	1145.913570	-220.417616	149.830803	1092.108372	-382.501588	115.815858	1107.807805	-43.585764	152.425882	1026.422867	-349.789093	133.487824	1049.077940	-73.387008	-1.656057	1178.579467	-187.477691	1.105259	1177.465723	-248.924790	74.900965	1060.444777	-10.702264	100.887876	1029.749853	-411.218457	176.682389	996.952105	-9.209795	265.028912	977.478147	-13.683721	328.104596	918.917428	-15.915885	278.576014	1007.695544	-32.820921	398.505723	838.640713	-38.624513	399.204017	811.726011	-148.619962	362.296244	721.228709	-13.594775	357.043998	635.824981	-32.968177	312.416591	561.155529	-37.889600	380.028016	632.850999	-65.431286	283.053624	482.567165	-43.722990	217.828494	467.238443	-94.746333	482.084889	388.268509	-99.489580	384.440637	388.659844	-27.496461	142.286015	919.157762	-417.730365	210.836684	865.716564	-411.420758	239.275832	887.112947	-399.195423	243.611055	782.695285	-405.901695	270.903059	673.586047	-379.865609	270.510789	655.078308	-262.782633	31.330316	392.212056	-377.662935	-42.075210	409.928165	-332.847868	86.754005	259.250460	-399.639384	207.404409	589.070894	-403.758564	169.822693	512.275747	-386.180577	97.617253	460.264716	-386.627331	189.811328	499.919298	-354.885464	158.167842	212.937375	-340.670322	-203.467643	868.173568	-206.967773	-49.372139	83.866570	-414.487579	-49.224854	80.029765	-16.972717	
257	1.2850	453.259037	1311.193100	-47.957346	471.614654	1316.156575	-387.674324	450.756450	1424.030754	-216.102054	477.438935	1267.760101	-212.317946	474.683125	1048.787460	41.994416	667.702879	924.082833	-40.010042	465.795877	1046.847908	-464.607588	666.985789	927.657961	-399.563591	-36.911142	1145.919782	-220.493905	149.695202	1092.092421	-382.326814	115.766339	1108.046585	-43.765853	152.323697	1026.473550	-349.648254	133.457479	1049.294470	-73.511812	-1.674351	1178.551802	-187.567700	1.106285	1177.461280	-249.003970	74.840159	1060.641297	-10.779316	100.759122	1029.679540	-411.239576	176.744951	997.231590	-9.131300	265.097356	977.953994	-13.621344	328.289293	919.396126	-15.869651	278.582852	1008.137338	-32.816822	398.699380	839.267560	-38.732027	399.309726	812.446718	-148.588496	362.390895	721.834705	-13.660075	357.086259	636.374679	-33.060424	312.405123	561.832971	-37.971135	380.108377	633.494951	-65.527894	282.944109	483.320212	-43.771267	217.746889	468.047855	-94.803994	481.868229	388.747633	-99.491113	384.277413	389.327673	-27.531821	142.075240	918.956794	-417.794744	210.579189	865.472142	-411.422164	239.002971	886.890506	-399.236054	243.293177	782.452990	-405.862629	270.570254	673.303224	-379.863371	270.102499	654.871264	-262.720007	31.259838	391.611793	-377.605515	-42.168529	409.217118	-332.814541	86.894699	258.778930	-399.602579	207.161618	588.655205	-403.742652	169.656578	511.891766	-386.116491	97.493064	459.805222	-386.565052	189.658088	499.512797	-354.822126	158.409008	212.559506	-340.625006	-203.469386	868.183029	-206.967524	-49.362384	83.881281	-414.490922	-49.210977	80.037062	-16.967539	
